# xmcd
#
# Track frame offsets:
#	150
#	18361
#	31419
#	49734
#	68298
#	83564
#	100980
#	125560
#	142167
#	157623
#	171663
#	184863
#	199446
#	224030
#
# Disc length: 3224 seconds
#
# Revision: 1
# Processed by: cddbd v1.4PL0 Copyright (c) Steve Scherf et al.
# Submitted via: audiograbber 1.80
#
DISCID=c80c960e
DTITLE=Alan Jackson - Drive
DYEAR=1900
DGENRE=
TTITLE0=Drive
TTITLE1=A Little Bluer Than That
TTITLE2=Bring on the Night
TTITLE3=Work in Progress
TTITLE4=The Sounds
TTITLE5=Designated Drinker
TTITLE6=Where Were You When The World Stopped Turning
TTITLE7=That'd Be Alright
TTITLE8=Once in a Lifetime Love
TTITLE9=When Love Comes Around
TTITLE10=I Slipped and Fell in Love
TTITLE11=First Love
TTITLE12=Where Were You ( Live)
TTITLE13=Extra
EXTD=
EXTT0=
EXTT1=
EXTT2=
EXTT3=
EXTT4=
EXTT5=
EXTT6=
EXTT7=
EXTT8=
EXTT9=
EXTT10=
EXTT11=
EXTT12=
EXTT13=
PLAYORDER=
